<svg xmlns="http://www.w3.org/2000/svg" width="50" height="51" viewBox="0 0 50 51">
  <g id="favicon" transform="translate(-621 -43)">
    <rect id="Rectangle_115" data-name="Rectangle 115" width="50" height="51" transform="translate(621 43)" fill="#fff"/>
    <path id="startup" d="M31.245,1.994l-.134-.737a1.018,1.018,0,0,0-.819-.819L29.554.3a18.391,18.391,0,0,0-9.381.745,18.8,18.8,0,0,0-8.727,6.444l-1.192-.409A5.6,5.6,0,0,0,4.665,8.237L.9,11.661a2.739,2.739,0,0,0,1.756,4.761l3.331.1a3.31,3.31,0,0,0,.925,2.882l5.228,5.228a3.308,3.308,0,0,0,2.882.926l.1,3.331a2.739,2.739,0,0,0,4.761,1.756l3.423-3.766a5.6,5.6,0,0,0,1.154-5.589L24.056,20.1A18.727,18.727,0,0,0,30.5,11.375a18.391,18.391,0,0,0,.745-9.381ZM2.268,13.166,6.034,9.743a3.569,3.569,0,0,1,3.559-.735l.55.189a43.608,43.608,0,0,0-3.307,5.32l-4.118-.128a.7.7,0,0,1-.451-1.222ZM22.54,21.955a3.568,3.568,0,0,1-.735,3.559L18.382,29.28a.7.7,0,0,1-1.222-.451l-.128-4.118a43.524,43.524,0,0,0,5.32-3.307Zm1.231-4.262a41.457,41.457,0,0,1-8.732,5.75,1.273,1.273,0,0,1-1.461-.245c.006,0,.047.048-5.228-5.228a1.274,1.274,0,0,1-.245-1.461q.391-.8.816-1.576l5.519,5.519a1.017,1.017,0,0,0,1.439-1.439l-5.9-5.9A41.381,41.381,0,0,1,13.939,7.68a16.354,16.354,0,0,1,15.3-5.366A16.352,16.352,0,0,1,23.772,17.693ZM17.989,7.358a4.385,4.385,0,1,0,6.2,0,4.39,4.39,0,0,0-6.2,0Zm4.763,4.763a2.351,2.351,0,1,1,0-3.324A2.354,2.354,0,0,1,22.752,12.121ZM1.563,23.8a1.017,1.017,0,0,1,0-1.439l1.318-1.317A1.017,1.017,0,0,1,4.32,22.486L3,23.8a1.017,1.017,0,0,1-1.439,0Zm8.989,3.476a1.017,1.017,0,0,1,0,1.439L9.235,30.036A1.017,1.017,0,1,1,7.8,28.6L9.114,27.28a1.017,1.017,0,0,1,1.439,0ZM8.33,24.657,3.856,29.131a1.017,1.017,0,0,1-1.439-1.439l4.474-4.474A1.017,1.017,0,1,1,8.33,24.657Z" transform="translate(630 52.991)" fill="#f5b458"/>
  </g>
</svg>
