<svg width="161" height="46" viewBox="0 0 161 46" fill="none" xmlns="http://www.w3.org/2000/svg">
<g clip-path="url(#clip0)">
<path d="M64.661 30.49C64.661 23.008 53.757 26.256 53.757 21.036C53.757 18.861 55.468 17.73 57.643 17.788C60.108 17.817 61.384 19.354 61.558 20.717H64.458C64.139 17.643 61.616 15.526 57.759 15.526C53.757 15.526 51.06 17.788 51.06 21.123C51.06 28.634 61.993 25.154 61.993 30.606C61.993 32.52 60.485 33.97 57.933 33.97C55.12 33.97 53.931 32.288 53.757 30.606H50.944C51.002 33.941 53.873 36.203 57.933 36.203C62.312 36.203 64.661 33.361 64.661 30.49ZM69.1245 31.65C69.1245 34.84 70.7195 36 73.5325 36H75.9105V33.767H73.9675C72.3435 33.767 71.7635 33.216 71.7635 31.65V22.283H75.9105V20.108H71.7635V16.106H69.1245V20.108H67.0655V22.283H69.1245V31.65ZM78.122 27.996C78.122 32.926 81.399 36.261 85.633 36.261C88.562 36.261 90.621 34.753 91.578 33.042V36H94.246V20.108H91.578V23.008C90.65 21.355 88.62 19.847 85.662 19.847C81.399 19.847 78.122 23.037 78.122 27.996ZM91.578 28.025C91.578 31.766 89.084 33.941 86.184 33.941C83.284 33.941 80.819 31.737 80.819 27.996C80.819 24.255 83.284 22.138 86.184 22.138C89.084 22.138 91.578 24.342 91.578 28.025ZM101.345 27.358C101.345 23.675 103.259 22.544 105.782 22.544H106.478V19.818C103.955 19.818 102.244 20.92 101.345 22.689V20.108H98.7057V36H101.345V27.358ZM110.104 31.65C110.104 34.84 111.699 36 114.512 36H116.89V33.767H114.947C113.323 33.767 112.743 33.216 112.743 31.65V22.283H116.89V20.108H112.743V16.106H110.104V20.108H108.045V22.283H110.104V31.65Z" fill="#F5B458"/>
<path d="M126.786 24.023C128.091 24.023 129.222 24.806 129.222 26.256H124.205C124.466 24.777 125.423 24.023 126.786 24.023ZM134.674 30.374H128.613C128.294 31.041 127.685 31.65 126.583 31.65C125.307 31.65 124.292 30.896 124.176 29.011H134.935C134.993 28.576 135.022 28.112 135.022 27.677C135.022 22.631 131.629 19.528 126.815 19.528C121.943 19.528 118.55 22.689 118.55 27.851C118.55 33.042 122.001 36.203 126.815 36.203C130.875 36.203 133.92 33.709 134.674 30.374ZM143.033 28.895C143.033 26.401 144.338 25.647 146.687 25.647H148.282V19.586C146.107 19.586 144.251 20.833 143.033 22.602V19.731H137.349V36H143.033V28.895Z" fill="#313450"/>
<path d="M44.714 2.84199L44.522 1.79199C44.4699 1.49971 44.3298 1.23034 44.1203 1.01997C43.9108 0.809603 43.642 0.668295 43.35 0.614988L42.299 0.422988C37.8054 -0.391811 33.1771 -0.0234091 28.869 1.49199C23.8904 3.27123 19.5465 6.47813 16.38 10.712L14.674 10.126C13.3149 9.65902 11.8554 9.56589 10.448 9.85634C9.04061 10.1468 7.73715 10.8101 6.674 11.777L1.285 16.677C0.708583 17.2024 0.302007 17.8878 0.117276 18.6456C-0.0674541 19.4033 -0.0219405 20.199 0.247995 20.9307C0.517931 21.6625 1.00002 22.2971 1.63259 22.7533C2.26516 23.2096 3.01946 23.4668 3.799 23.492L8.566 23.641C8.44285 24.3844 8.49882 25.1464 8.72926 25.8638C8.95971 26.5813 9.35798 27.2334 9.891 27.766L17.374 35.249C17.9067 35.7818 18.5589 36.1798 19.2763 36.4099C19.9938 36.64 20.7558 36.6956 21.499 36.572L21.648 41.339C21.6736 42.1182 21.931 42.8721 22.3873 43.5043C22.8436 44.1365 23.478 44.6183 24.2095 44.8881C24.941 45.1579 25.7363 45.2034 26.4938 45.0188C27.2513 44.8343 27.9366 44.428 28.462 43.852L33.362 38.463C34.3288 37.3998 34.992 36.0963 35.2825 34.689C35.5729 33.2816 35.4799 31.8221 35.013 30.463L34.427 28.757C38.6659 25.595 41.8745 21.2497 43.649 16.268C45.1624 11.9608 45.5294 7.33395 44.714 2.84199V2.84199ZM3.245 18.831L8.634 13.931C9.31097 13.3154 10.1409 12.8929 11.037 12.7079C11.9332 12.5228 12.8625 12.5819 13.728 12.879L14.515 13.149C12.7572 15.57 11.1758 18.1142 9.783 20.762L3.89 20.578C3.6885 20.5745 3.49276 20.5102 3.32844 20.3935C3.16413 20.2768 3.03889 20.1132 2.96916 19.9241C2.89943 19.7351 2.88846 19.5293 2.93768 19.3339C2.9869 19.1385 3.09402 18.9625 3.245 18.829V18.831ZM32.257 31.409C32.5541 32.2745 32.6132 33.2038 32.4281 34.1C32.243 34.9961 31.8206 35.826 31.205 36.503L26.305 41.892C26.1715 42.043 25.9955 42.1501 25.8001 42.1993C25.6047 42.2485 25.3989 42.2376 25.2098 42.1678C25.0208 42.0981 24.8572 41.9729 24.7405 41.8085C24.6238 41.6442 24.5595 41.4485 24.556 41.247L24.372 35.354C27.02 33.9615 29.5643 32.3801 31.985 30.622L32.257 31.409ZM34.019 25.309C30.2164 28.5686 26.0163 31.3336 21.519 33.538C21.1774 33.7048 20.7922 33.7607 20.4172 33.6977C20.0423 33.6348 19.6964 33.4562 19.428 33.187C19.437 33.187 19.496 33.255 11.945 25.704C11.6758 25.4356 11.4972 25.0897 11.4342 24.7148C11.3713 24.3398 11.4272 23.9546 11.594 23.613C11.9673 22.8523 12.3567 22.1003 12.762 21.357L20.662 29.257C20.9359 29.5257 21.3049 29.6754 21.6886 29.6736C22.0723 29.6717 22.4398 29.5185 22.7112 29.2472C22.9825 28.9758 23.1358 28.6083 23.1376 28.2246C23.1394 27.8409 22.9897 27.4719 22.721 27.198L14.271 18.748C15.9479 16.0088 17.8448 13.4106 19.943 10.979C22.6094 7.90669 26.0308 5.58259 29.8694 4.23598C33.7081 2.88937 37.8316 2.56676 41.833 3.29999C42.5722 7.33153 42.2394 11.4865 40.8681 15.349C39.4968 19.2116 37.1349 22.6461 34.019 25.309V25.309ZM25.743 10.518C24.8657 11.3957 24.2683 12.5138 24.0264 13.7309C23.7845 14.9481 23.9089 16.2097 24.3839 17.3561C24.8589 18.5026 25.6632 19.4824 26.6951 20.1718C27.7269 20.8612 28.94 21.2292 30.181 21.2292C31.422 21.2292 32.6351 20.8612 33.6669 20.1718C34.6988 19.4824 35.5031 18.5026 35.9781 17.3561C36.4531 16.2097 36.5775 14.9481 36.3356 13.7309C36.0937 12.5138 35.4963 11.3957 34.619 10.518C33.4412 9.34236 31.8451 8.68207 30.181 8.68207C28.5169 8.68207 26.9208 9.34236 25.743 10.518V10.518ZM32.56 17.335C32.0895 17.8054 31.4901 18.1257 30.8376 18.2554C30.185 18.3851 29.5087 18.3185 28.894 18.0638C28.2794 17.8092 27.7541 17.378 27.3845 16.8248C27.0149 16.2717 26.8176 15.6213 26.8176 14.956C26.8176 14.2907 27.0149 13.6403 27.3845 13.0871C27.7541 12.5339 28.2794 12.1028 28.894 11.8481C29.5087 11.5935 30.185 11.5268 30.8376 11.6566C31.4901 11.7863 32.0895 12.1066 32.56 12.577C33.1901 13.2084 33.5439 14.064 33.5439 14.956C33.5439 15.848 33.1901 16.7036 32.56 17.335V17.335ZM2.236 34.054C1.96297 33.7809 1.80959 33.4106 1.80959 33.0245C1.80959 32.6384 1.96297 32.268 2.236 31.995L4.122 30.11C4.39593 29.8413 4.76487 29.6916 5.1486 29.6934C5.53233 29.6952 5.89982 29.8485 6.17116 30.1198C6.4425 30.3912 6.59575 30.7587 6.5976 31.1424C6.59944 31.5261 6.44972 31.8951 6.181 32.169L4.299 34.054C4.02595 34.327 3.65563 34.4804 3.2695 34.4804C2.88337 34.4804 2.51305 34.327 2.24 34.054H2.236ZM15.099 39.029C15.372 39.302 15.5254 39.6724 15.5254 40.0585C15.5254 40.4446 15.372 40.8149 15.099 41.088L13.214 42.974C13.0793 43.1113 12.9187 43.2206 12.7415 43.2955C12.5643 43.3704 12.374 43.4094 12.1816 43.4104C11.9892 43.4113 11.7986 43.3741 11.6207 43.3009C11.4427 43.2277 11.2811 43.12 11.1451 42.9839C11.009 42.8479 10.9013 42.6862 10.8281 42.5083C10.7549 42.3304 10.7177 42.1398 10.7186 41.9474C10.7196 41.755 10.7586 41.5647 10.8335 41.3875C10.9084 41.2103 11.0177 41.0497 11.155 40.915L13.04 39.029C13.313 38.756 13.6834 38.6026 14.0695 38.6026C14.4556 38.6026 14.8259 38.756 15.099 39.029V39.029ZM11.918 35.276L5.518 41.676C5.24407 41.9447 4.87512 42.0944 4.49139 42.0926C4.10767 42.0907 3.74018 41.9375 3.46884 41.6661C3.1975 41.3948 3.04424 41.0273 3.0424 40.6436C3.04056 40.2599 3.19028 39.8909 3.459 39.617L9.859 33.217C10.1329 32.9483 10.5019 32.7985 10.8856 32.8004C11.2693 32.8022 11.6368 32.9555 11.9082 33.2268C12.1795 33.4982 12.3328 33.8657 12.3346 34.2494C12.3364 34.6331 12.1867 35.0021 11.918 35.276V35.276Z" fill="#F5B458"/>
</g>
<defs>
<clipPath id="clip0">
<rect width="160.291" height="45.136" fill="white"/>
</clipPath>
</defs>
</svg>
